<svg width="61" height="61" viewBox="0 0 61 61" fill="none" xmlns="http://www.w3.org/2000/svg">
<g filter="url(#filter0_di_121_2)">
<path d="M55 30.5C55 44.031 44.031 55 30.5 55C16.969 55 6 44.031 6 30.5C6 16.969 16.969 6 30.5 6C44.031 6 55 16.969 55 30.5Z" fill="#B6E679"/>
</g>
<path d="M6 28.5C7.5 28.5 11.8617 28.9104 18.5 33.5C26.7979 39.237 31.5 48 32 55" stroke="white" stroke-width="2"/>
<path d="M53 20.5C52 21 49.6125 19.3014 47 17.5C43.7344 15.2483 39 9.99999 40 7.99999" stroke="white" stroke-width="2"/>
<defs>
<filter id="filter0_di_121_2" x="0" y="0" width="61" height="61" filterUnits="userSpaceOnUse" color-interpolation-filters="sRGB">
<feFlood flood-opacity="0" result="BackgroundImageFix"/>
<feColorMatrix in="SourceAlpha" type="matrix" values="0 0 0 0 0 0 0 0 0 0 0 0 0 0 0 0 0 0 127 0" result="hardAlpha"/>
<feOffset/>
<feGaussianBlur stdDeviation="3"/>
<feComposite in2="hardAlpha" operator="out"/>
<feColorMatrix type="matrix" values="0 0 0 0 0 0 0 0 0 0 0 0 0 0 0 0 0 0 0.25 0"/>
<feBlend mode="normal" in2="BackgroundImageFix" result="effect1_dropShadow_121_2"/>
<feBlend mode="normal" in="SourceGraphic" in2="effect1_dropShadow_121_2" result="shape"/>
<feColorMatrix in="SourceAlpha" type="matrix" values="0 0 0 0 0 0 0 0 0 0 0 0 0 0 0 0 0 0 127 0" result="hardAlpha"/>
<feOffset dx="4" dy="-3"/>
<feGaussianBlur stdDeviation="2"/>
<feComposite in2="hardAlpha" operator="arithmetic" k2="-1" k3="1"/>
<feColorMatrix type="matrix" values="0 0 0 0 0 0 0 0 0 0 0 0 0 0 0 0 0 0 0.25 0"/>
<feBlend mode="normal" in2="shape" result="effect2_innerShadow_121_2"/>
</filter>
</defs>
</svg>
